<svg xmlns="http://www.w3.org/2000/svg" viewBox="0 0 200 200" width="200" height="200">
  <rect width="200" height="200" fill="#ffffff" rx="12"/>
  <rect x="20" y="20" width="160" height="160" rx="8" fill="#f5f5f5" stroke="#1677ff" stroke-width="2"/>
  <rect x="45" y="45" width="110" height="110" rx="4" fill="#e6f0ff"/>
  <g transform="translate(45,45)">
    <rect x="0" y="0" width="30" height="30" fill="#1677ff" rx="3"/>
    <rect x="5" y="5" width="20" height="20" fill="#ffffff" rx="2"/>
    <rect x="35" y="0" width="25" height="8" fill="#1677ff" rx="2"/>
    <rect x="35" y="12" width="25" height="8" fill="#1677ff" rx="2"/>
    <rect x="65" y="0" width="30" height="30" fill="#1677ff" rx="3"/>
    <rect x="70" y="5" width="20" height="20" fill="#ffffff" rx="2"/>
    <rect x="0" y="35" width="8" height="25" fill="#1677ff" rx="2"/>
    <rect x="12" y="35" width="8" height="25" fill="#1677ff" rx="2"/>
    <rect x="24" y="35" width="25" height="25" fill="#1677ff" rx="2"/>
    <rect x="65" y="35" width="8" height="25" fill="#1677ff" rx="2"/>
    <rect x="77" y="35" width="25" height="25" fill="#1677ff" rx="2"/>
    <rect x="0" y="65" width="30" height="30" fill="#1677ff" rx="3"/>
    <rect x="5" y="70" width="20" height="20" fill="#ffffff" rx="2"/>
    <rect x="35" y="65" width="25" height="8" fill="#1677ff" rx="2"/>
    <rect x="35" y="77" width="25" height="8" fill="#1677ff" rx="2"/>
    <rect x="65" y="65" width="8" height="25" fill="#1677ff" rx="2"/>
    <rect x="77" y="65" width="25" height="25" fill="#1677ff" rx="2"/>
  </g>
  <text x="100" y="175" text-anchor="middle" font-size="12" fill="#1677ff" font-weight="bold">支付宝赞赏码</text>
  <text x="100" y="190" text-anchor="middle" font-size="9" fill="#999">请替换为真实赞赏码</text>
</svg>